<svg width="24" height="24" viewBox="0 0 24 24" fill="none" xmlns="http://www.w3.org/2000/svg">
<path d="M12 23.9719C5.38162 23.9719 0 18.6238 0 12.0054C0 5.38699 5.38162 0.00537109 12 0.00537109C18.6184 0.00537109 24 5.38699 24 12.0054C23.9666 18.6238 18.6184 23.9719 12 23.9719Z" fill="#1877F2"/>
<path d="M10.1614 19.225H13.0695V11.9381H15.1085L15.309 9.49798H13.0695C13.0695 9.49798 13.0695 8.59548 13.0695 8.09408C13.0695 7.52584 13.1698 7.29186 13.738 7.29186C14.1725 7.29186 15.309 7.29186 15.309 7.29186V4.75146C15.309 4.75146 13.6377 4.75146 13.3035 4.75146C11.1308 4.75146 10.1614 5.72082 10.1614 7.52584C10.1614 9.1303 10.1614 9.46456 10.1614 9.46456H8.65723V11.9381H10.1614V19.225Z" fill="white"/>
</svg>
